<svg id="svg" version="1.1" xmlns="http://www.w3.org/2000/svg" xmlns:xlink="http://www.w3.org/1999/xlink" width="400" height="400" viewBox="0, 0, 400,400"><g id="svgg"><path id="path0" d="M28.857 79.500 C 27.732 80.325,26.809 81.107,26.806 81.237 C 26.787 81.986,31.060 87.356,32.312 88.157 C 36.642 90.928,41.850 100.605,43.347 108.662 C 43.668 110.388,44.521 113.293,45.243 115.118 L 46.555 118.436 45.871 124.918 L 45.186 131.400 46.176 138.200 C 46.721 141.940,47.523 146.299,47.960 147.886 C 49.786 154.523,49.814 155.956,48.344 168.000 L 47.002 179.000 47.130 199.000 C 47.225 213.777,47.405 219.888,47.820 222.400 C 49.302 231.362,49.299 231.162,48.006 236.176 C 47.353 238.708,46.552 241.420,46.225 242.201 C 45.689 243.485,45.712 244.192,46.464 249.511 C 47.201 254.730,47.253 256.151,46.918 262.000 C 46.599 267.571,46.654 269.566,47.272 274.800 C 48.480 285.042,47.665 293.324,44.971 298.200 C 44.151 299.684,43.320 302.103,42.793 304.536 C 41.066 312.513,39.227 315.057,33.800 316.977 C 25.081 320.062,31.046 320.853,70.502 321.849 L 81.604 322.129 83.129 320.477 L 84.655 318.824 84.514 310.912 C 84.437 306.560,84.107 296.340,83.781 288.200 C 83.010 268.972,83.010 267.957,83.765 261.716 C 84.455 256.007,84.240 249.132,82.987 236.848 C 80.547 212.933,83.268 208.550,101.000 207.844 C 108.163 207.558,113.444 206.705,116.275 205.375 C 118.821 204.179,118.909 204.179,121.470 205.371 C 123.868 206.488,129.071 207.369,137.000 208.000 C 149.561 209.000,154.067 211.637,156.142 219.200 C 156.474 220.410,157.215 223.020,157.787 225.000 C 161.600 238.181,162.272 273.496,158.997 288.600 C 157.895 293.682,157.895 293.618,159.002 301.938 L 159.606 306.476 162.815 311.138 C 164.580 313.702,166.619 316.493,167.345 317.339 L 168.665 318.878 175.033 319.663 C 183.657 320.727,205.230 320.610,207.758 319.485 L 209.315 318.793 207.958 317.485 C 207.211 316.766,205.741 315.678,204.691 315.067 C 202.735 313.928,201.123 311.928,200.445 309.800 C 196.254 296.635,194.698 279.992,195.771 259.800 C 195.957 256.295,195.872 250.758,195.545 245.000 C 195.257 239.940,195.015 231.570,195.007 226.400 C 194.990 216.059,194.712 214.232,192.709 211.287 C 192.068 210.344,191.193 208.782,190.765 207.814 L 189.987 206.054 190.943 203.513 C 191.469 202.115,192.348 200.078,192.895 198.986 C 194.064 196.654,194.190 196.033,195.189 187.692 C 195.751 182.993,195.847 180.889,195.559 179.574 C 194.416 174.373,193.776 172.433,192.669 170.817 C 191.240 168.731,191.240 168.701,192.622 160.517 C 193.357 156.167,193.724 151.952,194.007 144.600 C 194.220 139.100,194.568 130.820,194.782 126.200 C 194.996 121.580,195.063 115.100,194.931 111.800 L 194.691 105.800 196.304 100.982 C 199.331 91.943,201.090 89.015,204.755 86.910 C 207.152 85.533,211.989 81.506,211.736 81.097 C 211.629 80.923,210.298 80.155,208.780 79.390 L 206.020 78.000 191.510 78.009 C 174.739 78.020,169.755 78.329,162.295 79.817 C 155.487 81.176,156.198 80.413,155.039 87.601 L 154.042 93.776 155.035 99.188 C 155.580 102.165,156.285 105.320,156.600 106.200 C 156.915 107.080,157.648 110.240,158.228 113.223 L 159.283 118.647 158.693 125.006 C 158.324 128.982,158.234 131.821,158.453 132.582 C 161.043 141.592,161.602 156.708,159.761 167.972 C 159.479 169.700,155.185 174.266,152.653 175.530 C 147.795 177.957,135.446 179.139,120.322 178.625 C 115.635 178.466,107.300 178.215,101.800 178.068 C 89.135 177.729,86.446 176.725,83.448 171.216 L 82.338 169.178 82.777 162.689 C 83.060 158.501,83.088 154.640,82.857 151.800 C 82.661 149.380,82.588 138.040,82.695 126.600 C 82.877 107.226,82.833 105.348,82.058 99.200 C 81.600 95.570,81.010 90.037,80.747 86.904 L 80.268 81.208 77.034 80.222 C 69.937 78.059,69.811 78.048,56.720 78.455 C 48.584 78.708,42.908 78.695,39.425 78.416 C 31.352 77.768,31.195 77.785,28.857 79.500 M244.400 78.820 C 238.585 79.201,230.998 80.266,229.893 80.857 C 229.092 81.286,229.194 81.446,231.865 83.955 C 234.511 86.438,235.908 88.463,236.589 90.800 C 236.749 91.350,237.650 93.510,238.590 95.600 C 242.304 103.850,243.733 113.462,242.841 124.207 C 241.319 142.556,241.561 148.288,244.499 163.600 C 245.503 168.830,245.499 169.164,244.358 176.041 L 243.522 181.081 244.934 184.851 C 248.079 193.249,248.065 195.039,244.793 202.272 C 243.722 204.641,243.669 205.053,243.538 212.072 L 243.400 219.400 244.926 221.896 C 250.127 230.399,250.112 242.451,244.887 252.527 C 243.231 255.719,243.170 257.079,244.558 259.841 C 246.921 264.547,248.781 273.536,248.796 280.328 C 248.801 282.450,246.799 287.415,244.977 289.802 C 244.201 290.820,243.326 292.726,242.838 294.463 C 242.385 296.079,241.360 299.291,240.561 301.601 C 239.533 304.572,238.960 307.157,238.599 310.440 C 238.291 313.249,237.766 315.814,237.268 316.939 L 236.447 318.796 237.323 319.000 C 243.221 320.368,243.609 320.386,249.000 319.534 C 251.860 319.083,254.695 318.458,255.300 318.146 C 256.258 317.653,256.552 317.658,257.579 318.189 C 260.887 319.900,279.529 321.176,287.400 320.231 C 291.050 319.793,296.296 319.605,305.000 319.600 C 317.124 319.592,325.022 319.191,328.963 318.384 C 330.499 318.069,331.280 318.112,332.563 318.584 C 335.573 319.693,343.615 320.743,350.091 320.873 L 356.381 321.000 357.432 319.950 C 358.370 319.012,358.583 318.219,359.421 312.550 C 360.993 301.913,362.192 298.856,366.379 294.800 L 369.063 292.200 370.332 287.110 C 371.779 281.303,371.827 280.426,370.984 275.200 C 369.726 267.408,369.048 266.697,367.208 271.241 C 365.376 275.764,362.474 278.765,358.511 280.233 C 357.290 280.686,355.805 281.748,354.400 283.174 C 351.544 286.070,349.301 287.226,343.200 288.944 C 333.817 291.587,332.352 291.760,324.408 291.167 C 320.554 290.879,311.190 290.625,303.600 290.603 C 275.113 290.518,272.937 286.674,275.626 241.200 C 276.030 234.361,276.036 229.856,275.657 219.200 C 275.305 209.312,275.294 204.194,275.615 199.673 C 275.942 195.084,275.929 191.620,275.565 185.873 C 275.293 181.572,275.047 167.566,275.006 154.000 C 274.960 139.111,274.755 128.107,274.471 125.400 C 273.674 117.776,273.277 106.889,273.495 98.579 C 273.611 94.167,273.573 88.440,273.412 85.853 L 273.118 81.148 271.259 79.784 L 269.400 78.420 259.200 78.470 C 253.590 78.497,246.930 78.655,244.400 78.820 " stroke="none" fill="#191115" fill-rule="evenodd"></path><path id="path1" d="M28.548 75.173 C 25.831 76.548,22.870 78.974,22.059 80.489 C 21.200 82.094,24.252 86.810,32.489 96.606 C 38.071 103.246,40.112 111.341,39.598 124.800 C 39.195 135.329,39.907 144.814,41.682 152.568 L 42.499 156.137 41.659 163.168 C 40.135 175.942,39.939 180.907,40.163 201.200 C 40.326 215.935,40.538 221.852,41.045 225.809 L 41.713 231.018 40.615 237.009 C 39.600 242.539,39.540 243.431,39.831 248.600 C 40.005 251.680,40.105 258.160,40.055 263.000 C 40.004 267.840,40.138 273.870,40.352 276.400 C 41.184 286.249,39.091 304.820,36.763 308.238 C 35.255 310.451,33.357 312.056,30.355 313.656 C 28.974 314.392,26.934 315.836,25.822 316.865 L 23.800 318.737 26.064 320.942 C 30.217 324.987,28.625 324.727,52.068 325.183 C 63.361 325.403,74.580 325.694,77.000 325.829 L 81.400 326.075 83.600 324.528 C 84.810 323.677,86.405 322.085,87.144 320.990 L 88.488 319.000 88.251 310.600 C 88.120 305.980,87.800 294.730,87.540 285.600 C 87.184 273.069,87.180 267.382,87.525 262.400 C 87.852 257.678,87.867 253.467,87.578 247.600 C 86.167 218.934,86.204 218.225,89.274 215.363 C 92.669 212.198,92.564 212.227,101.600 211.933 C 106.110 211.786,111.809 211.388,114.265 211.048 C 118.194 210.503,119.276 210.497,123.278 210.993 C 125.780 211.304,131.421 211.766,135.813 212.021 C 144.937 212.551,145.921 212.868,149.400 216.400 L 151.297 218.326 152.475 230.663 C 153.858 245.146,153.890 272.495,152.540 286.725 C 151.370 299.057,152.497 309.443,155.790 316.679 C 158.466 322.559,168.740 324.585,194.600 324.330 L 207.800 324.200 210.925 322.902 C 213.438 321.859,215.500 320.704,217.909 318.993 C 217.969 318.951,215.170 316.055,211.691 312.558 C 200.061 300.871,199.550 298.758,199.616 262.600 C 199.667 234.451,199.070 214.778,198.020 210.019 L 197.186 206.238 197.970 201.019 C 199.767 189.036,200.006 181.370,198.797 174.400 C 197.844 168.907,197.848 169.118,198.387 155.400 C 198.595 150.120,198.889 136.712,199.041 125.603 L 199.317 105.407 201.019 101.288 C 203.227 95.945,204.871 93.284,206.881 91.800 C 210.201 89.350,213.439 86.680,215.892 84.373 C 217.280 83.068,218.654 82.000,218.946 82.000 C 220.520 82.000,227.915 89.657,233.242 96.803 C 234.355 98.297,236.344 102.026,237.362 104.530 C 238.078 106.291,238.886 117.744,238.572 121.692 C 238.022 128.613,237.698 143.988,238.028 147.507 C 239.023 158.136,239.493 169.256,239.189 175.000 C 238.926 179.963,239.008 182.094,239.661 187.329 L 240.450 193.659 239.623 199.929 C 238.332 209.725,238.465 217.722,240.047 225.371 C 241.588 232.823,241.516 239.559,239.784 249.859 L 238.727 256.146 239.750 263.973 C 241.547 277.717,241.669 280.642,240.598 284.325 C 240.094 286.059,239.374 288.900,238.998 290.639 C 237.671 296.775,232.892 309.189,231.124 311.092 C 229.910 312.399,226.024 315.170,222.603 317.169 L 219.864 318.770 221.713 319.563 C 229.921 323.081,240.449 324.757,249.137 323.930 C 255.897 323.286,256.721 323.286,264.400 323.932 C 272.753 324.635,281.005 324.654,307.000 324.027 C 319.100 323.735,329.810 323.490,330.800 323.481 C 331.790 323.472,335.066 323.765,338.081 324.132 C 341.148 324.506,346.451 324.800,350.121 324.800 L 356.680 324.800 358.339 323.599 C 361.422 321.365,362.112 319.952,363.538 312.946 C 365.028 305.627,365.878 303.670,369.266 299.769 C 373.394 295.015,374.657 290.515,375.812 276.442 C 376.126 272.615,376.469 269.397,376.575 269.291 C 376.965 268.902,375.527 266.174,374.479 265.315 C 370.241 261.838,367.127 262.893,362.960 269.219 C 360.546 272.884,357.956 275.136,353.926 277.077 C 352.097 277.958,349.753 279.329,348.718 280.123 C 344.836 283.102,341.064 284.876,334.452 286.834 C 331.630 287.670,331.218 287.688,324.852 287.265 C 313.000 286.478,307.129 286.364,300.235 286.789 L 293.470 287.206 290.200 285.623 C 286.205 283.689,284.242 281.694,283.848 279.167 C 283.696 278.195,283.111 275.456,282.547 273.081 C 281.421 268.342,281.327 256.813,282.342 248.000 C 283.484 238.075,283.605 232.079,282.932 218.800 C 282.351 207.334,282.339 205.092,282.836 199.800 C 283.193 196.006,283.296 192.403,283.118 190.000 C 281.889 173.445,281.646 165.509,281.877 149.400 C 282.084 134.933,282.030 132.211,281.486 129.800 C 279.131 119.365,278.041 107.937,278.682 100.400 C 279.132 95.106,279.065 85.355,278.557 82.065 C 278.272 80.222,275.541 77.594,272.302 76.049 L 269.686 74.800 257.143 74.805 C 236.579 74.813,228.769 75.751,222.117 79.008 L 218.612 80.723 217.124 79.379 C 215.331 77.759,213.131 76.601,209.502 75.367 C 203.394 73.289,167.335 73.854,156.600 76.195 C 155.728 76.385,153.062 78.829,152.062 80.355 C 150.623 82.550,149.948 93.018,150.797 99.972 C 152.031 110.086,152.506 118.488,152.211 125.000 C 152.019 129.261,152.117 132.741,152.549 137.000 C 153.504 146.424,153.658 154.232,153.040 161.996 L 152.484 168.992 150.942 170.347 C 150.094 171.093,148.140 172.303,146.600 173.037 L 143.800 174.372 132.160 174.776 C 122.494 175.112,119.134 175.074,112.360 174.553 C 107.052 174.144,102.373 174.014,98.973 174.180 L 93.745 174.436 91.373 172.852 C 90.068 171.980,88.579 170.697,88.063 170.000 L 87.127 168.733 86.986 135.867 C 86.907 117.659,86.659 100.948,86.429 98.400 C 86.200 95.870,86.009 91.370,86.004 88.400 C 85.984 75.587,83.824 74.668,53.600 74.610 C 43.810 74.591,34.720 74.431,33.400 74.254 C 31.180 73.957,30.816 74.026,28.548 75.173 M54.400 75.834 C 82.376 75.913,84.400 76.656,84.400 86.846 C 84.400 89.854,84.677 94.899,85.015 98.057 C 85.486 102.460,85.629 108.607,85.627 124.400 C 85.621 171.785,85.484 169.748,88.858 172.588 C 92.462 175.620,94.722 175.801,128.200 175.735 C 146.155 175.699,149.590 174.906,153.303 169.935 C 155.277 167.293,155.885 149.232,154.371 138.200 C 153.681 133.175,153.587 131.030,153.794 125.000 C 154.059 117.263,153.476 108.748,152.014 99.000 C 150.768 90.690,152.059 81.608,154.867 78.928 C 157.826 76.106,179.656 74.530,201.800 75.541 L 207.800 75.815 211.200 77.503 C 213.070 78.431,215.140 79.653,215.800 80.218 L 217.000 81.245 214.200 83.842 C 212.660 85.270,210.056 87.465,208.413 88.719 C 204.203 91.934,203.364 92.926,201.419 97.000 C 198.146 103.850,197.674 105.647,197.907 110.365 C 198.121 114.690,197.498 140.674,196.755 158.400 L 196.328 168.600 197.410 174.000 C 198.867 181.269,198.609 188.261,196.400 201.400 L 195.593 206.200 196.639 210.600 C 197.917 215.973,198.504 233.015,198.422 262.400 C 198.318 299.651,199.245 303.209,212.320 315.766 C 215.776 319.085,215.736 318.721,212.827 320.320 C 207.678 323.151,207.324 323.201,192.637 323.192 C 166.307 323.176,161.736 321.906,156.696 313.200 C 154.029 308.594,152.928 297.233,154.137 286.800 C 154.500 283.670,154.961 273.919,155.233 263.600 L 155.704 245.800 154.231 232.200 C 152.564 216.807,152.622 216.996,148.605 213.974 C 145.602 211.715,144.103 211.321,136.600 210.815 C 132.860 210.563,127.307 210.037,124.259 209.646 C 118.893 208.957,118.560 208.959,113.659 209.690 C 110.877 210.106,105.157 210.575,100.948 210.733 L 93.297 211.021 90.948 212.463 C 88.529 213.949,85.784 217.039,85.319 218.800 C 85.075 219.728,85.445 229.193,86.431 247.200 C 86.725 252.581,86.704 256.783,86.353 262.600 C 85.982 268.765,85.977 273.812,86.332 284.600 C 86.585 292.300,86.905 303.190,87.042 308.800 L 87.292 319.000 86.069 320.665 C 85.396 321.581,84.022 322.897,83.015 323.590 L 81.184 324.850 69.159 324.425 C 62.545 324.191,53.954 323.997,50.067 323.994 C 33.399 323.979,29.976 323.337,26.593 319.590 L 25.800 318.712 27.439 317.256 C 28.341 316.455,30.379 315.088,31.968 314.217 C 40.807 309.374,42.448 301.437,41.900 266.200 C 41.797 259.600,41.579 251.590,41.416 248.400 C 41.129 242.807,41.163 242.396,42.377 236.909 L 43.637 231.217 42.843 225.709 C 40.825 211.704,41.364 176.387,43.820 161.711 C 44.705 156.420,44.729 155.902,44.159 154.311 C 42.211 148.873,40.278 133.089,40.962 128.210 C 42.895 114.426,39.421 101.676,31.311 92.796 C 28.934 90.193,25.045 84.846,23.905 82.613 L 23.095 81.026 25.191 79.098 C 28.701 75.871,30.472 75.127,33.800 75.484 C 35.340 75.649,44.610 75.807,54.400 75.834 M271.099 76.813 C 272.434 77.480,274.299 78.712,275.245 79.551 L 276.965 81.078 277.270 86.839 C 277.452 90.266,277.397 95.517,277.136 99.800 C 276.644 107.855,277.244 116.761,278.909 126.143 C 279.719 130.701,279.767 132.119,279.689 149.200 C 279.611 166.428,280.097 180.053,281.155 190.272 C 281.403 192.667,281.308 195.249,280.799 199.901 C 280.417 203.397,280.170 207.145,280.251 208.229 C 281.784 228.734,281.797 232.982,280.375 247.091 C 277.180 278.791,282.134 289.072,300.078 287.979 C 304.802 287.691,309.412 287.722,316.800 288.091 C 330.723 288.786,332.796 288.738,336.400 287.636 C 342.186 285.868,345.621 284.325,348.697 282.112 C 350.404 280.884,353.420 278.998,355.400 277.921 C 359.569 275.652,361.971 273.488,363.722 270.420 C 366.715 265.178,368.696 264.072,371.693 265.973 C 374.311 267.634,374.400 267.933,374.397 275.074 C 374.390 286.662,372.376 294.168,367.967 299.036 C 364.520 302.843,363.286 306.356,361.411 317.701 C 361.231 318.791,360.576 319.804,359.016 321.401 L 356.869 323.600 350.232 323.600 C 345.614 323.600,341.799 323.343,337.697 322.757 C 332.877 322.069,330.814 321.964,326.400 322.183 C 302.214 323.387,272.436 323.520,262.819 322.468 C 256.439 321.770,256.054 321.771,250.219 322.496 C 243.838 323.289,242.098 323.204,234.800 321.747 C 231.923 321.173,225.895 319.430,225.111 318.945 C 224.905 318.817,226.055 317.867,227.668 316.834 C 230.634 314.933,232.340 313.249,233.424 311.154 C 234.418 309.232,238.770 296.951,239.837 293.057 C 240.389 291.045,241.417 287.510,242.123 285.200 L 243.407 281.000 242.911 275.600 C 242.638 272.630,242.006 267.950,241.507 265.200 C 240.301 258.550,240.357 253.655,241.711 247.600 C 243.546 239.397,243.565 232.933,241.775 225.783 L 240.316 219.952 240.509 210.676 C 240.642 204.259,240.918 200.234,241.405 197.616 C 242.078 193.997,242.078 193.629,241.396 189.216 C 240.837 185.594,240.666 181.756,240.603 171.400 C 240.540 160.817,240.355 156.773,239.670 151.000 C 238.770 143.415,238.770 143.417,239.832 122.600 C 240.272 113.968,239.481 106.352,237.701 102.093 C 235.205 96.120,228.727 87.243,224.162 83.539 C 221.021 80.991,221.013 81.169,224.339 79.683 C 231.260 76.588,233.317 76.387,265.436 75.672 C 268.319 75.608,268.937 75.733,271.099 76.813 " stroke="none" fill="#7c546c" fill-rule="evenodd"></path><path id="path2" d="M29.144 76.177 C 28.123 76.724,26.344 78.038,25.191 79.098 L 23.095 81.026 23.905 82.613 C 25.045 84.846,28.934 90.193,31.311 92.796 C 39.421 101.676,42.895 114.426,40.962 128.210 C 40.278 133.089,42.211 148.873,44.159 154.311 C 44.729 155.902,44.705 156.420,43.820 161.711 C 41.364 176.387,40.825 211.704,42.843 225.709 L 43.637 231.217 42.377 236.909 C 41.163 242.396,41.129 242.807,41.416 248.400 C 41.579 251.590,41.797 259.600,41.900 266.200 C 42.448 301.437,40.807 309.374,31.968 314.217 C 30.379 315.088,28.341 316.455,27.439 317.256 L 25.800 318.712 26.593 319.590 C 29.976 323.337,33.399 323.979,50.067 323.994 C 53.954 323.997,62.545 324.191,69.159 324.425 L 81.184 324.850 83.015 323.590 C 84.022 322.897,85.396 321.581,86.069 320.665 L 87.292 319.000 87.042 308.800 C 86.905 303.190,86.585 292.300,86.332 284.600 C 85.977 273.812,85.982 268.765,86.353 262.600 C 86.704 256.783,86.725 252.581,86.431 247.200 C 85.445 229.193,85.075 219.728,85.319 218.800 C 85.784 217.039,88.529 213.949,90.948 212.463 L 93.297 211.021 100.948 210.733 C 105.157 210.575,110.877 210.106,113.659 209.690 C 118.560 208.959,118.893 208.957,124.259 209.646 C 127.307 210.037,132.860 210.563,136.600 210.815 C 144.103 211.321,145.602 211.715,148.605 213.974 C 152.622 216.996,152.564 216.807,154.231 232.200 L 155.704 245.800 155.233 263.600 C 154.961 273.919,154.500 283.670,154.137 286.800 C 152.928 297.233,154.029 308.594,156.696 313.200 C 161.736 321.906,166.307 323.176,192.637 323.192 C 207.324 323.201,207.678 323.151,212.827 320.320 C 215.736 318.721,215.776 319.085,212.320 315.766 C 199.245 303.209,198.318 299.651,198.422 262.400 C 198.504 233.015,197.917 215.973,196.639 210.600 L 195.593 206.200 196.400 201.400 C 198.609 188.261,198.867 181.269,197.410 174.000 L 196.328 168.600 196.755 158.400 C 197.498 140.674,198.121 114.690,197.907 110.365 C 197.510 102.334,201.589 93.929,208.413 88.719 C 210.056 87.465,212.660 85.270,214.200 83.842 L 217.000 81.245 215.800 80.218 C 215.140 79.653,213.070 78.431,211.200 77.503 L 207.800 75.815 201.800 75.541 C 179.656 74.530,157.826 76.106,154.867 78.928 C 152.059 81.608,150.768 90.690,152.014 99.000 C 153.476 108.748,154.059 117.263,153.794 125.000 C 153.587 131.030,153.681 133.175,154.371 138.200 C 155.885 149.232,155.277 167.293,153.303 169.935 C 149.590 174.906,146.155 175.699,128.200 175.735 C 94.722 175.801,92.462 175.620,88.858 172.588 C 85.484 169.748,85.621 171.785,85.627 124.400 C 85.629 108.607,85.486 102.460,85.015 98.057 C 84.677 94.899,84.400 89.854,84.400 86.846 C 84.400 76.656,82.376 75.913,54.400 75.834 C 44.610 75.807,35.340 75.649,33.800 75.484 C 31.263 75.212,30.826 75.277,29.144 76.177 M250.800 76.019 C 234.591 76.410,230.343 76.998,224.339 79.683 C 221.013 81.169,221.021 80.991,224.162 83.539 C 228.727 87.243,235.205 96.120,237.701 102.093 C 239.481 106.352,240.272 113.968,239.832 122.600 C 238.770 143.417,238.770 143.415,239.670 151.000 C 240.355 156.773,240.540 160.817,240.603 171.400 C 240.666 181.756,240.837 185.594,241.396 189.216 C 242.078 193.629,242.078 193.997,241.405 197.616 C 240.918 200.234,240.642 204.259,240.509 210.676 L 240.316 219.952 241.775 225.783 C 243.565 232.933,243.546 239.397,241.711 247.600 C 240.357 253.655,240.301 258.550,241.507 265.200 C 242.006 267.950,242.638 272.630,242.911 275.600 L 243.407 281.000 242.123 285.200 C 241.417 287.510,240.389 291.045,239.837 293.057 C 238.770 296.951,234.418 309.232,233.424 311.154 C 232.340 313.249,230.634 314.933,227.668 316.834 C 226.055 317.867,224.905 318.817,225.111 318.945 C 225.895 319.430,231.923 321.173,234.800 321.747 C 242.098 323.204,243.838 323.289,250.219 322.496 C 256.054 321.771,256.439 321.770,262.819 322.468 C 272.436 323.520,302.214 323.387,326.400 322.183 C 330.814 321.964,332.877 322.069,337.697 322.757 C 341.799 323.343,345.614 323.600,350.232 323.600 L 356.869 323.600 359.016 321.401 C 360.576 319.804,361.231 318.791,361.411 317.701 C 363.286 306.356,364.520 302.843,367.967 299.036 C 372.376 294.168,374.390 286.662,374.397 275.074 C 374.400 267.933,374.311 267.634,371.693 265.973 C 368.696 264.072,366.715 265.178,363.722 270.420 C 361.971 273.488,359.569 275.652,355.400 277.921 C 353.420 278.998,350.404 280.884,348.697 282.112 C 345.621 284.325,342.186 285.868,336.400 287.636 C 332.796 288.738,330.723 288.786,316.800 288.091 C 309.412 287.722,304.802 287.691,300.078 287.979 C 292.924 288.415,290.632 287.970,286.711 285.385 C 280.316 281.169,278.218 268.490,280.375 247.091 C 281.797 232.982,281.784 228.734,280.251 208.229 C 280.170 207.145,280.417 203.397,280.799 199.901 C 281.308 195.249,281.403 192.667,281.155 190.272 C 280.097 180.053,279.611 166.428,279.689 149.200 C 279.767 132.119,279.719 130.701,278.909 126.143 C 277.244 116.761,276.644 107.855,277.136 99.800 C 277.397 95.517,277.452 90.266,277.270 86.839 L 276.965 81.078 275.245 79.551 C 272.081 76.743,269.163 75.589,265.436 75.672 C 263.656 75.712,257.070 75.868,250.800 76.019 M39.425 78.416 C 42.908 78.695,48.584 78.708,56.720 78.455 C 69.811 78.048,69.937 78.059,77.034 80.222 L 80.268 81.208 80.747 86.904 C 81.010 90.037,81.600 95.570,82.058 99.200 C 82.833 105.348,82.877 107.226,82.695 126.600 C 82.588 138.040,82.661 149.380,82.857 151.800 C 83.088 154.640,83.060 158.501,82.777 162.689 L 82.338 169.178 83.448 171.216 C 86.446 176.725,89.135 177.729,101.800 178.068 C 107.300 178.215,115.635 178.466,120.322 178.625 C 135.446 179.139,147.795 177.957,152.653 175.530 C 155.185 174.266,159.479 169.700,159.761 167.972 C 161.602 156.708,161.043 141.592,158.453 132.582 C 158.234 131.821,158.324 128.982,158.693 125.006 L 159.283 118.647 158.228 113.223 C 157.648 110.240,156.915 107.080,156.600 106.200 C 156.285 105.320,155.580 102.165,155.035 99.188 L 154.042 93.776 155.039 87.601 C 156.198 80.413,155.487 81.176,162.295 79.817 C 169.755 78.329,174.739 78.020,191.510 78.009 L 206.020 78.000 208.780 79.390 C 210.298 80.155,211.629 80.923,211.736 81.097 C 211.989 81.506,207.152 85.533,204.755 86.910 C 201.090 89.015,199.331 91.943,196.304 100.982 L 194.691 105.800 194.931 111.800 C 195.063 115.100,194.996 121.580,194.782 126.200 C 194.568 130.820,194.220 139.100,194.007 144.600 C 193.724 151.952,193.357 156.167,192.622 160.517 C 191.240 168.701,191.240 168.731,192.669 170.817 C 193.776 172.433,194.416 174.373,195.559 179.574 C 195.847 180.889,195.751 182.993,195.189 187.692 C 194.190 196.033,194.064 196.654,192.895 198.986 C 192.348 200.078,191.469 202.115,190.943 203.513 L 189.987 206.054 190.765 207.814 C 191.193 208.782,192.068 210.344,192.709 211.287 C 194.712 214.232,194.990 216.059,195.007 226.400 C 195.015 231.570,195.257 239.940,195.545 245.000 C 195.872 250.758,195.957 256.295,195.771 259.800 C 194.698 279.992,196.254 296.635,200.445 309.800 C 201.123 311.928,202.735 313.928,204.691 315.067 C 205.741 315.678,207.211 316.766,207.958 317.485 L 209.315 318.793 207.758 319.485 C 205.230 320.610,183.657 320.727,175.033 319.663 L 168.665 318.878 167.345 317.339 C 166.619 316.493,164.580 313.702,162.815 311.138 L 159.606 306.476 159.002 301.938 C 157.895 293.618,157.895 293.682,158.997 288.600 C 162.272 273.496,161.600 238.181,157.787 225.000 C 157.215 223.020,156.474 220.410,156.142 219.200 C 154.067 211.637,149.561 209.000,137.000 208.000 C 129.071 207.369,123.868 206.488,121.470 205.371 C 118.909 204.179,118.821 204.179,116.275 205.375 C 113.444 206.705,108.163 207.558,101.000 207.844 C 83.268 208.550,80.547 212.933,82.987 236.848 C 84.240 249.132,84.455 256.007,83.765 261.716 C 83.010 267.957,83.010 268.972,83.781 288.200 C 84.107 296.340,84.437 306.560,84.514 310.912 L 84.655 318.824 83.129 320.477 L 81.604 322.129 70.502 321.849 C 31.046 320.853,25.081 320.062,33.800 316.977 C 39.227 315.057,41.066 312.513,42.793 304.536 C 43.320 302.103,44.151 299.684,44.971 298.200 C 47.665 293.324,48.480 285.042,47.272 274.800 C 46.654 269.566,46.599 267.571,46.918 262.000 C 47.253 256.151,47.201 254.730,46.464 249.511 C 45.712 244.192,45.689 243.485,46.225 242.201 C 46.552 241.420,47.353 238.708,48.006 236.176 C 49.299 231.162,49.302 231.362,47.820 222.400 C 47.405 219.888,47.225 213.777,47.130 199.000 L 47.002 179.000 48.344 168.000 C 49.814 155.956,49.786 154.523,47.960 147.886 C 47.523 146.299,46.721 141.940,46.176 138.200 L 45.186 131.400 45.871 124.918 L 46.555 118.436 45.243 115.118 C 44.521 113.293,43.668 110.388,43.347 108.662 C 41.850 100.605,36.642 90.928,32.312 88.157 C 31.060 87.356,26.787 81.986,26.806 81.237 C 26.809 81.107,27.732 80.325,28.857 79.500 C 31.195 77.785,31.352 77.768,39.425 78.416 M271.259 79.784 L 273.118 81.148 273.412 85.853 C 273.573 88.440,273.611 94.167,273.495 98.579 C 273.277 106.889,273.674 117.776,274.471 125.400 C 274.755 128.107,274.960 139.111,275.006 154.000 C 275.047 167.566,275.293 181.572,275.565 185.873 C 275.929 191.620,275.942 195.084,275.615 199.673 C 275.294 204.194,275.305 209.312,275.657 219.200 C 276.036 229.856,276.030 234.361,275.626 241.200 C 273.671 274.250,275.104 283.194,283.101 287.880 C 287.425 290.414,288.503 290.558,303.600 290.603 C 311.190 290.625,320.554 290.879,324.408 291.167 C 332.352 291.760,333.817 291.587,343.200 288.944 C 349.301 287.226,351.544 286.070,354.400 283.174 C 355.805 281.748,357.290 280.686,358.511 280.233 C 362.474 278.765,365.376 275.764,367.208 271.241 C 369.048 266.697,369.726 267.408,370.984 275.200 C 371.827 280.426,371.779 281.303,370.332 287.110 L 369.063 292.200 366.379 294.800 C 362.192 298.856,360.993 301.913,359.421 312.550 C 358.583 318.219,358.370 319.012,357.432 319.950 L 356.381 321.000 350.091 320.873 C 343.615 320.743,335.573 319.693,332.563 318.584 C 331.280 318.112,330.499 318.069,328.963 318.384 C 325.022 319.191,317.124 319.592,305.000 319.600 C 296.296 319.605,291.050 319.793,287.400 320.231 C 279.529 321.176,260.887 319.900,257.579 318.189 C 256.552 317.658,256.258 317.653,255.300 318.146 C 254.695 318.458,251.860 319.083,249.000 319.534 C 243.609 320.386,243.221 320.368,237.323 319.000 L 236.447 318.796 237.268 316.939 C 237.766 315.814,238.291 313.249,238.599 310.440 C 238.960 307.157,239.533 304.572,240.561 301.601 C 241.360 299.291,242.385 296.079,242.838 294.463 C 243.326 292.726,244.201 290.820,244.977 289.802 C 246.799 287.415,248.801 282.450,248.796 280.328 C 248.781 273.536,246.921 264.547,244.558 259.841 C 243.170 257.079,243.231 255.719,244.887 252.527 C 250.112 242.451,250.127 230.399,244.926 221.896 L 243.400 219.400 243.538 212.072 C 243.669 205.053,243.722 204.641,244.793 202.272 C 248.065 195.039,248.079 193.249,244.934 184.851 L 243.522 181.081 244.358 176.041 C 245.499 169.164,245.503 168.830,244.499 163.600 C 241.561 148.288,241.319 142.556,242.841 124.207 C 243.733 113.462,242.304 103.850,238.590 95.600 C 237.650 93.510,236.749 91.350,236.589 90.800 C 235.908 88.463,234.511 86.438,231.865 83.955 C 228.457 80.755,228.482 80.724,235.269 79.763 C 241.775 78.842,247.610 78.526,259.200 78.470 L 269.400 78.420 271.259 79.784 " stroke="none" fill="#6c445c" fill-rule="evenodd"></path><path id="path3" d="M0.000 200.000 L 0.000 400.000 200.000 400.000 L 400.000 400.000 400.000 200.000 L 400.000 0.000 200.000 0.000 L 0.000 0.000 0.000 200.000 M37.800 71.027 C 43.126 71.510,47.504 71.589,58.000 71.393 C 81.536 70.953,87.030 72.342,89.455 79.346 C 90.170 81.412,90.875 107.239,90.766 127.400 C 90.714 137.080,90.816 150.361,90.993 156.913 L 91.315 168.826 92.414 169.750 C 93.785 170.904,106.768 171.453,129.371 171.313 L 143.343 171.227 145.157 170.105 C 146.479 169.288,147.077 168.607,147.364 167.592 C 147.959 165.486,147.694 113.725,147.031 102.609 C 145.471 76.457,147.617 72.306,163.080 71.566 C 167.216 71.368,173.030 71.034,176.000 70.823 C 188.583 69.928,211.748 71.163,216.800 72.997 C 218.271 73.531,219.002 73.574,220.800 73.233 C 225.971 72.252,231.264 71.952,249.400 71.614 C 274.512 71.147,275.984 71.416,282.460 77.666 C 285.366 80.471,285.534 80.729,285.793 82.809 C 286.376 87.468,286.213 96.907,285.470 101.649 C 284.871 105.465,284.821 106.720,285.187 108.649 C 285.433 109.942,286.189 114.690,286.869 119.200 L 288.104 127.400 288.470 160.000 C 288.836 192.666,288.861 203.577,288.570 204.048 C 288.485 204.187,288.582 210.487,288.786 218.050 C 289.013 226.479,289.014 235.515,288.787 241.400 C 287.829 266.275,287.829 266.123,288.768 273.200 C 289.925 281.929,289.750 281.377,291.728 282.537 L 293.460 283.552 305.160 283.312 C 312.953 283.153,319.353 283.244,324.330 283.584 L 331.800 284.096 334.870 282.864 C 337.379 281.857,338.445 281.127,340.700 278.873 C 343.921 275.651,347.581 273.675,352.800 272.339 C 356.915 271.286,358.363 270.106,359.558 266.828 C 361.111 262.568,363.651 260.237,368.305 258.798 C 371.863 257.698,372.315 257.406,375.041 254.448 C 378.163 251.062,380.675 249.707,382.283 250.542 C 383.707 251.283,386.308 253.876,387.042 255.287 C 388.180 257.476,385.073 268.267,382.566 270.835 C 380.439 273.013,379.345 277.151,378.364 286.724 C 377.216 297.918,375.158 303.344,371.298 305.353 C 369.074 306.510,368.552 307.566,367.026 314.000 C 364.763 323.542,363.876 325.217,360.102 327.070 L 357.800 328.200 349.600 328.160 C 345.090 328.137,329.340 328.137,314.600 328.160 C 243.212 328.267,231.668 327.980,221.223 325.834 C 219.089 325.396,218.430 325.395,217.384 325.832 C 212.891 327.710,208.855 328.022,189.286 328.004 C 162.316 327.979,156.387 327.025,151.828 321.978 C 147.728 317.440,147.545 314.567,148.000 261.800 C 148.141 245.430,148.045 235.715,147.674 228.800 L 147.149 219.000 145.637 217.544 L 144.126 216.089 138.763 215.848 C 123.002 215.140,118.236 215.023,114.600 215.253 C 112.400 215.392,106.820 215.529,102.200 215.558 L 93.800 215.610 92.046 217.239 L 90.292 218.868 90.576 230.534 C 90.732 236.950,90.931 256.150,91.018 273.200 C 91.105 290.250,91.346 307.530,91.553 311.600 C 92.034 321.064,91.092 324.349,87.141 326.984 C 83.640 329.319,83.077 329.367,65.659 328.823 C 56.937 328.550,45.120 328.389,39.400 328.464 L 29.000 328.600 26.326 327.288 C 23.212 325.759,20.475 322.960,19.436 320.239 L 18.741 318.418 19.858 316.365 C 21.690 312.999,25.022 310.638,29.464 309.560 C 35.160 308.177,35.560 304.677,35.294 258.600 C 35.231 247.710,35.361 238.404,35.614 235.800 C 35.924 232.594,35.912 229.301,35.569 223.666 C 35.012 214.527,35.304 170.970,35.981 162.200 C 36.336 157.601,36.297 155.420,35.768 150.000 C 35.349 145.713,35.085 138.494,35.016 129.400 C 34.837 105.880,34.351 103.258,29.720 100.801 C 27.687 99.723,26.063 97.946,24.419 95.000 C 21.694 90.117,18.653 85.646,16.801 83.800 C 14.229 81.236,14.211 81.324,18.100 77.436 C 22.011 73.526,23.566 72.526,27.587 71.335 C 31.239 70.254,29.769 70.298,37.800 71.027 M215.328 91.126 C 213.529 92.598,211.496 94.576,210.811 95.522 C 210.126 96.467,208.792 97.786,207.847 98.452 C 206.530 99.381,205.791 100.377,204.675 102.731 L 203.221 105.800 202.847 137.800 C 202.600 158.972,202.610 171.154,202.874 173.800 C 203.292 177.968,203.042 195.091,202.460 202.200 C 202.279 204.414,202.292 207.450,202.488 209.000 C 202.683 210.540,202.976 230.250,203.139 252.800 L 203.436 293.800 204.755 296.663 C 205.865 299.073,206.383 299.719,208.023 300.738 C 209.095 301.404,210.473 302.712,211.086 303.644 C 211.699 304.575,213.673 306.877,215.473 308.758 L 218.745 312.179 221.617 310.216 C 224.404 308.312,225.335 307.440,229.529 302.800 C 231.677 300.423,234.400 294.308,234.400 291.860 C 234.400 291.167,234.752 288.443,235.182 285.807 C 235.907 281.363,235.930 280.358,235.500 272.007 C 234.899 260.352,234.892 253.195,235.470 241.472 C 235.860 233.568,235.844 231.078,235.374 226.872 C 234.785 221.598,234.652 204.839,235.140 197.481 C 235.283 195.326,235.281 191.636,235.136 189.281 C 234.991 186.927,234.748 167.270,234.597 145.600 L 234.323 106.200 232.924 103.695 C 231.908 101.874,231.051 100.912,229.789 100.172 C 227.798 99.006,225.549 96.653,224.581 94.724 C 223.958 93.484,219.275 88.371,218.812 88.425 C 218.695 88.438,217.128 89.654,215.328 91.126 " stroke="none" fill="#fcacdc" fill-rule="evenodd"></path><path id="path4" d="M27.587 71.335 C 23.566 72.526,22.011 73.526,18.100 77.436 C 14.211 81.324,14.229 81.236,16.801 83.800 C 18.653 85.646,21.694 90.117,24.419 95.000 C 26.063 97.946,27.687 99.723,29.720 100.801 C 34.351 103.258,34.837 105.880,35.016 129.400 C 35.085 138.494,35.349 145.713,35.768 150.000 C 36.297 155.420,36.336 157.601,35.981 162.200 C 35.304 170.970,35.012 214.527,35.569 223.666 C 35.912 229.301,35.924 232.594,35.614 235.800 C 35.361 238.404,35.231 247.710,35.294 258.600 C 35.560 304.677,35.160 308.177,29.464 309.560 C 25.022 310.638,21.690 312.999,19.858 316.365 L 18.741 318.418 19.436 320.239 C 20.475 322.960,23.212 325.759,26.326 327.288 L 29.000 328.600 39.400 328.464 C 45.120 328.389,56.937 328.550,65.659 328.823 C 83.077 329.367,83.640 329.319,87.141 326.984 C 91.092 324.349,92.034 321.064,91.553 311.600 C 91.346 307.530,91.105 290.250,91.018 273.200 C 90.931 256.150,90.732 236.950,90.576 230.534 L 90.292 218.868 92.046 217.239 L 93.800 215.610 102.200 215.558 C 106.820 215.529,112.400 215.392,114.600 215.253 C 118.236 215.023,123.002 215.140,138.763 215.848 L 144.126 216.089 145.637 217.544 L 147.149 219.000 147.674 228.800 C 148.045 235.715,148.141 245.430,148.000 261.800 C 147.507 319.027,147.650 320.313,154.975 324.607 C 162.125 328.797,208.127 329.700,217.384 325.832 C 218.430 325.395,219.089 325.396,221.223 325.834 C 231.668 327.980,243.212 328.267,314.600 328.160 C 329.340 328.137,345.090 328.137,349.600 328.160 L 357.800 328.200 360.102 327.070 C 363.876 325.217,364.763 323.542,367.026 314.000 C 368.552 307.566,369.074 306.510,371.298 305.353 C 375.158 303.344,377.216 297.918,378.364 286.724 C 379.345 277.151,380.439 273.013,382.566 270.835 C 385.073 268.267,388.180 257.476,387.042 255.287 C 386.308 253.876,383.707 251.283,382.283 250.542 C 380.675 249.707,378.163 251.062,375.041 254.448 C 372.315 257.406,371.863 257.698,368.305 258.798 C 363.651 260.237,361.111 262.568,359.558 266.828 C 358.363 270.106,356.915 271.286,352.800 272.339 C 347.581 273.675,343.921 275.651,340.700 278.873 C 338.445 281.127,337.379 281.857,334.870 282.864 L 331.800 284.096 324.330 283.584 C 319.353 283.244,312.953 283.153,305.160 283.312 L 293.460 283.552 291.728 282.537 C 289.750 281.377,289.925 281.929,288.768 273.200 C 287.829 266.123,287.829 266.275,288.787 241.400 C 289.014 235.515,289.013 226.479,288.786 218.050 C 288.582 210.487,288.485 204.187,288.570 204.048 C 288.861 203.577,288.836 192.666,288.470 160.000 L 288.104 127.400 286.869 119.200 C 286.189 114.690,285.433 109.942,285.187 108.649 C 284.821 106.720,284.871 105.465,285.470 101.649 C 286.213 96.907,286.376 87.468,285.793 82.809 C 285.534 80.729,285.366 80.471,282.460 77.666 C 275.984 71.416,274.512 71.147,249.400 71.614 C 231.264 71.952,225.971 72.252,220.800 73.233 C 219.002 73.574,218.271 73.531,216.800 72.997 C 211.748 71.163,188.583 69.928,176.000 70.823 C 173.030 71.034,167.216 71.368,163.080 71.566 C 147.617 72.306,145.471 76.457,147.031 102.609 C 147.694 113.725,147.959 165.486,147.364 167.592 C 147.077 168.607,146.479 169.288,145.157 170.105 L 143.343 171.227 129.371 171.313 C 106.768 171.453,93.785 170.904,92.414 169.750 L 91.315 168.826 90.993 156.913 C 90.816 150.361,90.714 137.080,90.766 127.400 C 90.875 107.239,90.170 81.412,89.455 79.346 C 87.030 72.342,81.536 70.953,58.000 71.393 C 47.504 71.589,43.126 71.510,37.800 71.027 C 29.769 70.298,31.239 70.254,27.587 71.335 M53.600 74.610 C 83.824 74.668,85.984 75.587,86.004 88.400 C 86.009 91.370,86.200 95.870,86.429 98.400 C 86.659 100.948,86.907 117.659,86.986 135.867 L 87.127 168.733 88.063 170.000 C 88.579 170.697,90.068 171.980,91.373 172.852 L 93.745 174.436 98.973 174.180 C 102.373 174.014,107.052 174.144,112.360 174.553 C 119.134 175.074,122.494 175.112,132.160 174.776 L 143.800 174.372 146.600 173.037 C 148.140 172.303,150.094 171.093,150.942 170.347 L 152.484 168.992 153.040 161.996 C 153.658 154.232,153.504 146.424,152.549 137.000 C 152.117 132.741,152.019 129.261,152.211 125.000 C 152.506 118.488,152.031 110.086,150.797 99.972 C 149.948 93.018,150.623 82.550,152.062 80.355 C 153.062 78.829,155.728 76.385,156.600 76.195 C 167.335 73.854,203.394 73.289,209.502 75.367 C 213.131 76.601,215.331 77.759,217.124 79.379 L 218.612 80.723 222.117 79.008 C 228.769 75.751,236.579 74.813,257.143 74.805 L 269.686 74.800 272.302 76.049 C 275.541 77.594,278.272 80.222,278.557 82.065 C 279.065 85.355,279.132 95.106,278.682 100.400 C 278.041 107.937,279.131 119.365,281.486 129.800 C 282.030 132.211,282.084 134.933,281.877 149.400 C 281.646 165.509,281.889 173.445,283.118 190.000 C 283.296 192.403,283.193 196.006,282.836 199.800 C 282.339 205.092,282.351 207.334,282.932 218.800 C 283.605 232.079,283.484 238.075,282.342 248.000 C 281.327 256.813,281.421 268.342,282.547 273.081 C 283.111 275.456,283.696 278.195,283.848 279.167 C 284.242 281.694,286.205 283.689,290.200 285.623 L 293.470 287.206 300.235 286.789 C 307.129 286.364,313.000 286.478,324.852 287.265 C 331.218 287.688,331.630 287.670,334.452 286.834 C 341.064 284.876,344.836 283.102,348.718 280.123 C 349.753 279.329,352.097 277.958,353.926 277.077 C 357.956 275.136,360.546 272.884,362.960 269.219 C 367.127 262.893,370.241 261.838,374.479 265.315 C 375.527 266.174,376.965 268.902,376.575 269.291 C 376.469 269.397,376.126 272.615,375.812 276.442 C 374.657 290.515,373.394 295.015,369.266 299.769 C 365.878 303.670,365.028 305.627,363.538 312.946 C 362.112 319.952,361.422 321.365,358.339 323.599 L 356.680 324.800 350.121 324.800 C 346.451 324.800,341.148 324.506,338.081 324.132 C 335.066 323.765,331.790 323.472,330.800 323.481 C 329.810 323.490,319.100 323.735,307.000 324.027 C 281.005 324.654,272.753 324.635,264.400 323.932 C 256.721 323.286,255.897 323.286,249.137 323.930 C 240.449 324.757,229.921 323.081,221.713 319.563 L 219.864 318.770 222.603 317.169 C 226.024 315.170,229.910 312.399,231.124 311.092 C 232.892 309.189,237.671 296.775,238.998 290.639 C 239.374 288.900,240.094 286.059,240.598 284.325 C 241.669 280.642,241.547 277.717,239.750 263.973 L 238.727 256.146 239.784 249.859 C 241.516 239.559,241.588 232.823,240.047 225.371 C 238.465 217.722,238.332 209.725,239.623 199.929 L 240.450 193.659 239.661 187.329 C 239.008 182.094,238.926 179.963,239.189 175.000 C 239.493 169.256,239.023 158.136,238.028 147.507 C 237.698 143.988,238.022 128.613,238.572 121.692 C 238.886 117.744,238.078 106.291,237.362 104.530 C 236.344 102.026,234.355 98.297,233.242 96.803 C 227.915 89.657,220.520 82.000,218.946 82.000 C 218.654 82.000,217.280 83.068,215.892 84.373 C 213.439 86.680,210.201 89.350,206.881 91.800 C 204.871 93.284,203.227 95.945,201.019 101.288 L 199.317 105.407 199.041 125.603 C 198.889 136.712,198.595 150.120,198.387 155.400 C 197.848 169.118,197.844 168.907,198.797 174.400 C 200.006 181.370,199.767 189.036,197.970 201.019 L 197.186 206.238 198.020 210.019 C 199.070 214.778,199.667 234.451,199.616 262.600 C 199.550 298.758,200.061 300.871,211.691 312.558 C 215.170 316.055,217.969 318.951,217.909 318.993 C 215.500 320.704,213.438 321.859,210.925 322.902 L 207.800 324.200 194.600 324.330 C 168.740 324.585,158.466 322.559,155.790 316.679 C 152.497 309.443,151.370 299.057,152.540 286.725 C 153.890 272.495,153.858 245.146,152.475 230.663 L 151.297 218.326 149.400 216.400 C 145.921 212.868,144.937 212.551,135.813 212.021 C 131.421 211.766,125.780 211.304,123.278 210.993 C 119.276 210.497,118.194 210.503,114.265 211.048 C 111.809 211.388,106.110 211.786,101.600 211.933 C 92.564 212.227,92.669 212.198,89.274 215.363 C 86.204 218.225,86.167 218.934,87.578 247.600 C 87.867 253.467,87.852 257.678,87.525 262.400 C 87.180 267.382,87.184 273.069,87.540 285.600 C 87.800 294.730,88.120 305.980,88.251 310.600 L 88.488 319.000 87.144 320.990 C 86.405 322.085,84.810 323.677,83.600 324.528 L 81.400 326.075 77.000 325.829 C 74.580 325.694,63.361 325.403,52.068 325.183 C 28.625 324.727,30.217 324.987,26.064 320.942 L 23.800 318.737 25.822 316.865 C 26.934 315.836,28.974 314.392,30.355 313.656 C 33.357 312.056,35.255 310.451,36.763 308.238 C 39.091 304.820,41.184 286.249,40.352 276.400 C 40.138 273.870,40.004 267.840,40.055 263.000 C 40.105 258.160,40.005 251.680,39.831 248.600 C 39.540 243.431,39.600 242.539,40.615 237.009 L 41.713 231.018 41.045 225.809 C 40.538 221.852,40.326 215.935,40.163 201.200 C 39.939 180.907,40.135 175.942,41.659 163.168 L 42.499 156.137 41.682 152.568 C 39.907 144.814,39.195 135.329,39.598 124.800 C 40.112 111.341,38.071 103.246,32.489 96.606 C 24.252 86.810,21.200 82.094,22.059 80.489 C 23.875 77.097,29.899 73.785,33.400 74.254 C 34.720 74.431,43.810 74.591,53.600 74.610 M221.470 90.900 C 222.815 92.275,224.215 93.996,224.581 94.724 C 225.549 96.653,227.798 99.006,229.789 100.172 C 231.051 100.912,231.908 101.874,232.924 103.695 L 234.323 106.200 234.597 145.600 C 234.748 167.270,234.991 186.927,235.136 189.281 C 235.281 191.636,235.283 195.326,235.140 197.481 C 234.652 204.839,234.785 221.598,235.374 226.872 C 235.844 231.078,235.860 233.568,235.470 241.472 C 234.892 253.195,234.899 260.352,235.500 272.007 C 235.930 280.358,235.907 281.363,235.182 285.807 C 234.752 288.443,234.400 291.167,234.400 291.860 C 234.400 297.008,228.455 305.544,221.617 310.216 L 218.745 312.179 215.473 308.758 C 213.673 306.877,211.699 304.575,211.086 303.644 C 210.473 302.712,209.095 301.404,208.023 300.738 C 206.383 299.719,205.865 299.073,204.755 296.663 L 203.436 293.800 203.139 252.800 C 202.976 230.250,202.683 210.540,202.488 209.000 C 202.292 207.450,202.279 204.414,202.460 202.200 C 203.042 195.091,203.292 177.968,202.874 173.800 C 202.610 171.154,202.600 158.972,202.847 137.800 L 203.221 105.800 204.675 102.731 C 205.791 100.377,206.530 99.381,207.847 98.452 C 208.792 97.786,210.126 96.467,210.811 95.522 C 211.857 94.077,218.141 88.503,218.812 88.425 C 218.928 88.411,220.124 89.525,221.470 90.900 " stroke="none" fill="#946484" fill-rule="evenodd"></path></g></svg>